<?xml version="1.0" encoding="UTF-8"?>
<svg width="713px" height="168px" viewBox="0 0 713 168" version="1.1" xmlns="http://www.w3.org/2000/svg" xmlns:xlink="http://www.w3.org/1999/xlink">
    <!-- Generator: Sketch 49.1 (51147) - http://www.bohemiancoding.com/sketch -->
    <title>findmydi-white@3x</title>
    <desc>Created with Sketch.</desc>
    <defs>
        <linearGradient x1="50%" y1="2.68470014%" x2="50%" y2="93.6549359%" id="linearGradient-1">
            <stop stop-color="#24B3D0" offset="0%"></stop>
            <stop stop-color="#79C252" offset="100%"></stop>
        </linearGradient>
    </defs>
    <g id="Page-1" stroke="none" stroke-width="1" fill="none" fill-rule="evenodd">
        <g id="Desktop-HD-Copy-3" transform="translate(-384.000000, -437.000000)">
            <g id="findmydi-white" transform="translate(384.000000, 437.000000)">
                <g id="Group-3">
                    <text id="Find-My" font-family="CeraGR-Medium" font-size="48" font-weight="500" letter-spacing="-0.400000006">
                        <tspan x="182" y="61" fill="#FFFFFF">Find My</tspan>
                        <tspan x="352.672" y="61" fill="#8C8C8C"> </tspan>
                    </text>
                    <g id="Group-Copy">
                        <g id="Group-4">
                            <g id="Group-3-Copy-2">
                                <g id="Group-2">
                                    <path d="M73.1105528,167.893259 C62.667971,167.893259 13.6661227,106.39558 13.6661227,73.8017762 C13.6661227,41.2079726 40.2803006,14.7854741 73.1105528,14.7854741 C105.940805,14.7854741 132.554983,41.2079726 132.554983,73.8017762 C132.554983,106.39558 83.5531346,167.893259 73.1105528,167.893259 Z M73.319587,118.558896 C98.8129108,118.558896 119.479333,98.0413163 119.479333,72.7315994 C119.479333,47.4218824 98.8129108,26.9043029 73.319587,26.9043029 C47.8262631,26.9043029 27.1598409,47.4218824 27.1598409,72.7315994 C27.1598409,98.0413163 47.8262631,118.558896 73.319587,118.558896 Z M73.319587,145.060044 C113.637714,145.060044 146.322013,112.611142 146.322013,72.5833925 C146.322013,32.5556432 113.637714,0.106741112 73.319587,0.106741112 C33.0014603,0.106741112 0.317160775,32.5556432 0.317160775,72.5833925 C0.317160775,112.611142 33.0014603,145.060044 73.319587,145.060044 Z" id="Combined-Shape" fill="url(#linearGradient-1)"></path>
                                    <path d="M77.0249336,54.7101895 C79.9094794,56.6943985 82.1113366,59.3839711 83.6213506,62.7605784 C85.1167901,66.1045949 85.8626973,69.8286458 85.8626973,73.9240874 C85.8626973,78.019529 85.1167901,81.7435799 83.6213506,85.0875964 C82.1113366,88.4642038 79.9094794,91.1537764 77.0249336,93.1379854 C74.1209546,95.1355621 70.656271,96.1316663 66.6579984,96.1316663 L52.1549216,96.1316663 C50.8417556,96.1316663 49.7068119,95.6757513 48.808654,94.7789143 C47.9102102,93.8817919 47.4532995,92.7477127 47.4532995,91.4354883 L47.4532995,56.4126866 C47.4532995,55.1004621 47.9102102,53.966383 48.808654,53.0692605 C49.7068119,52.1724236 50.8417556,51.7165085 52.1549216,51.7165085 L66.6579984,51.7165085 C70.656271,51.7165085 74.1209546,52.7126128 77.0249336,54.7101895 Z M75.0711048,84.6950226 C77.0116764,81.8315068 77.9739944,78.2334598 77.9739944,73.9240874 C77.9739944,69.6129379 77.0005201,66.0131756 75.0378681,63.148903 C73.0048532,60.1819436 69.9721596,58.684713 66.0511751,58.684713 L55.0385907,58.684713 L55.0385907,89.1634618 L66.0511751,89.1634618 C70.0130834,89.1634618 73.0578013,87.6658622 75.0711048,84.6950226 Z M97.2709261,94.7686005 C96.3914006,95.6726629 95.2619023,96.1316663 93.9448193,96.1316663 C92.6277363,96.1316663 91.498238,95.6726629 90.6187125,94.7686005 C89.7460665,93.8716097 89.3038795,92.7417952 89.3038795,91.4354883 L89.3038795,66.4105452 C89.3038795,65.1042383 89.7460665,63.9744238 90.6187125,63.077433 C91.498238,62.1733706 92.6277363,61.7143672 93.9448193,61.7143672 C95.2619023,61.7143672 96.3914006,62.1733706 97.2709261,63.077433 C98.1435721,63.9744238 98.5857591,65.1042383 98.5857591,66.4105452 L98.5857591,91.4354883 C98.5857591,92.7417952 98.1435721,93.8716097 97.2709261,94.7686005 Z M90.3541259,58.8960527 C89.5090549,58.2330449 89.1218325,57.1559405 89.1218325,55.7461627 L89.1218325,54.5948941 C89.1218325,53.1733168 89.5414899,52.0838122 90.4412698,51.4249441 C91.250939,50.83206 92.4169593,50.56524 93.9448193,50.56524 C95.564027,50.56524 96.7542185,50.8320329 97.5355127,51.4450041 C98.3805837,52.1080119 98.7678061,53.1851163 98.7678061,54.5948941 L98.7678061,55.7461627 C98.7678061,57.2076125 98.3638577,58.306405 97.4738558,58.9499413 C96.6798419,59.5240713 95.4912935,59.7758168 93.884137,59.7758168 C92.3056216,59.7758168 91.1336497,59.5076349 90.3541259,58.8960527 Z" id="Di" fill="#FFFFFF" fill-rule="nonzero"></path>
                                </g>
                            </g>
                        </g>
                    </g>
                </g>
                <text id="Driving-Instructor" font-family="Quicksand-Bold, Quicksand" font-size="64" font-weight="bold" letter-spacing="-0.400000006" fill="#79C252">
                    <tspan x="181" y="127">Driving Instructor</tspan>
                </text>
            </g>
        </g>
    </g>
</svg>